<svg id="Layer_1" data-name="Layer 1" xmlns="http://www.w3.org/2000/svg" viewBox="0 0 382.91 382.89"><defs><style>.cls-1{fill:#fff;}</style></defs><title>add-button</title><path class="cls-1" d="M193.54,391.62c-2.21-.17-4.42-.39-6.63-.52a178.46,178.46,0,0,1-27.14-3.76,188.07,188.07,0,0,1-33.89-10.67A192.4,192.4,0,0,1,34,295.43a188.43,188.43,0,0,1-21.09-54.89,199.24,199.24,0,0,1-3.66-24.78,185.07,185.07,0,0,1-.43-25.25A192,192,0,0,1,118.65,26.88a188.2,188.2,0,0,1,44-14.49,195.23,195.23,0,0,1,25.63-3.28,192.58,192.58,0,0,1,25.65.11,192.08,192.08,0,0,1,158.23,107.2,188.57,188.57,0,0,1,14.91,43,210.54,210.54,0,0,1,3.83,25.81c.2,2.22.21,4.45.33,6.67,0,.69.17,1.37.26,2.06v12.32a12,12,0,0,0-.25,1.67,168,168,0,0,1-2.71,25.71,189.14,189.14,0,0,1-15.57,48.6,192.3,192.3,0,0,1-99.39,94.65,188.56,188.56,0,0,1-35.68,10.92,177.41,177.41,0,0,1-24.72,3.27c-2.25.13-4.5.35-6.76.52Zm6.31-16.74c96.18.19,174.64-77.6,174.88-174.23.23-96-76.4-173.71-171.68-175.2a174.73,174.73,0,1,0-3.2,349.43Z" transform="translate(-8.55 -8.74)"/><path class="cls-1" d="M208.37,208.53v1.83q0,23.53,0,47.05c0,3.14-.8,5.89-3.44,7.8a7.88,7.88,0,0,1-8.63.75,7.71,7.71,0,0,1-4.58-7.21q-.06-24.24,0-48.49v-1.73h-49c-2.71,0-5.16-.58-7.13-2.62a8.28,8.28,0,0,1,5.87-14h50.21v-50A8.28,8.28,0,0,1,208,139.58a14,14,0,0,1,.36,3.49q0,23.46,0,46.92v1.88h50a8.27,8.27,0,0,1,2.38,16.23,13.21,13.21,0,0,1-3.61.41q-23.4,0-46.79,0Z" transform="translate(-8.55 -8.74)"/></svg>