<?xml version="1.0" encoding="utf-8"?>
<!-- Generator: Adobe Illustrator 22.0.1, SVG Export Plug-In . SVG Version: 6.00 Build 0)  -->
<svg version="1.1" id="Layer_1" xmlns="http://www.w3.org/2000/svg" xmlns:xlink="http://www.w3.org/1999/xlink" x="0px" y="0px"
	 viewBox="0 0 221.1 136.3" style="enable-background:new 0 0 221.1 136.3;" xml:space="preserve">
<style type="text/css">
	.st0{opacity:0.7;fill:#1F2C58;}
</style>
<path class="st0" d="M146.7,51.1c-8.2-25.7-26-40.5-52.4-45c-1.5-0.3-3.1-0.5-4.7-0.7c-2.5,0-4.9,0-7.4,0c-3.2,0.6-6.5,1-9.6,1.7
	c-25.9,5.6-44.9,25.7-49.2,51.6c-5.6,33.9,16.7,66.1,50.4,72.7c34.3,6.7,68.2-16.2,74.5-50.4c0.5-2.8,0.8-5.5,1.3-8.3
	c0-2.5,0-4.9,0-7.4C148.7,60.6,148.2,55.7,146.7,51.1z M104.3,60.7C94,71,83.6,81.3,73.4,91.7c-2.3,2.4-4.8,4.1-8,4.9
	c-2.5,0.7-5,1.7-7.5,2.5c-1.7,0.6-2.8,0.1-2.1-1.9c2.3-6.5,4-12.9,9.6-18c10-9,19.2-18.9,28.7-28.4c0.7-0.7,1.5-1.4,2.1-2
	c3.3,3.3,6.4,6.5,9.8,10C105.7,59.2,105.1,60,104.3,60.7z M108.9,55.3c-2.9-2.9-6.1-6.1-9.1-9.1c3.4-3.5,6.8-7,10.1-10.5
	c3.1,3,6.3,6.2,9.4,9.2C115.9,48.4,112.5,51.8,108.9,55.3z"/>
</svg>
